# xmcd
#
# Track frame offsets:
#	225
#	24528
#	42836
#	76823
#	100139
#	128857
#	154621
#	175581
#	196432
#	216354
#
# Disc length: 3203 seconds
#
# Revision: 0
# Processed by: cddbd v1.4PL0 Copyright (c) Steve Scherf et al.
# Submitted via: EasyCDDAExtractor 5.0.5.1
#
DISCID=7b0c800a
DTITLE=Francine Reed - Shades of Blue
DYEAR=1999
DGENRE=blues
TTITLE0=The Man That Got Away
TTITLE1=I Gotta Right To Sing the Blues
TTITLE2=When Love Was New
TTITLE3=What Do I Do
TTITLE4=Beyond My Wildest Dreams
TTITLE5=I Have a Right to Know
TTITLE6=I'm a Handfull
TTITLE7=Wrong Man for the Job
TTITLE8=A Touch of Love
TTITLE9=455 Rocket
EXTD=
EXTT0=
EXTT1=
EXTT2=
EXTT3=
EXTT4=
EXTT5=
EXTT6=
EXTT7=
EXTT8=
EXTT9=
PLAYORDER=
